<?xml version="1.0" encoding="utf-8" standalone="no"?>
<!DOCTYPE svg PUBLIC "-//W3C//DTD SVG 1.1//EN"
  "http://www.w3.org/Graphics/SVG/1.1/DTD/svg11.dtd">
<svg xmlns:xlink="http://www.w3.org/1999/xlink" width="864pt" height="360pt" viewBox="0 0 864 360" xmlns="http://www.w3.org/2000/svg" version="1.1">
 <metadata>
  <rdf:RDF xmlns:dc="http://purl.org/dc/elements/1.1/" xmlns:cc="http://creativecommons.org/ns#" xmlns:rdf="http://www.w3.org/1999/02/22-rdf-syntax-ns#">
   <cc:Work>
    <dc:type rdf:resource="http://purl.org/dc/dcmitype/StillImage"/>
    <dc:date>2025-09-29T08:16:12.000436</dc:date>
    <dc:format>image/svg+xml</dc:format>
    <dc:creator>
     <cc:Agent>
      <dc:title>Matplotlib v3.10.6, https://matplotlib.org/</dc:title>
     </cc:Agent>
    </dc:creator>
   </cc:Work>
  </rdf:RDF>
 </metadata>
 <defs>
  <style type="text/css">*{stroke-linejoin: round; stroke-linecap: butt}</style>
 </defs>
 <g id="figure_1">
  <g id="patch_1">
   <path d="M 0 360 
L 864 360 
L 864 0 
L 0 0 
L 0 360 
z
" style="fill: none; opacity: 0"/>
  </g>
  <g id="axes_1">
   <g id="patch_2">
    <path d="M 108 320.4 
L 777.6 320.4 
L 777.6 43.2 
L 108 43.2 
L 108 320.4 
z
" style="fill: none; opacity: 0"/>
   </g>
   <g id="matplotlib.axis_1">
    <g id="xtick_1">
     <g id="line2d_1">
      <path d="M 129.273584 320.4 
L 129.273584 43.2 
" clip-path="url(#pb55b8058f3)" style="fill: none; stroke-dasharray: 5.12,1.28,0.8,1.28; stroke-dashoffset: 0; stroke: #b0b0b0; stroke-width: 0.8"/>
     </g>
     <g id="line2d_2">
      <defs>
       <path id="m9d334315d0" d="M 0 0 
L 0 3.5 
" style="stroke: #a9a9a9; stroke-width: 0.8"/>
      </defs>
      <g>
       <use xlink:href="#m9d334315d0" x="129.273584" y="320.4" style="fill: #a9a9a9; stroke: #a9a9a9; stroke-width: 0.8"/>
      </g>
     </g>
     <g id="text_1">
      <!-- 2021-07 -->
      <g style="fill: #a9a9a9" transform="translate(108.382178 334.998438) scale(0.1 -0.1)">
       <defs>
        <path id="DejaVuSans-32" d="M 1228 531 
L 3431 531 
L 3431 0 
L 469 0 
L 469 531 
Q 828 903 1448 1529 
Q 2069 2156 2228 2338 
Q 2531 2678 2651 2914 
Q 2772 3150 2772 3378 
Q 2772 3750 2511 3984 
Q 2250 4219 1831 4219 
Q 1534 4219 1204 4116 
Q 875 4013 500 3803 
L 500 4441 
Q 881 4594 1212 4672 
Q 1544 4750 1819 4750 
Q 2544 4750 2975 4387 
Q 3406 4025 3406 3419 
Q 3406 3131 3298 2873 
Q 3191 2616 2906 2266 
Q 2828 2175 2409 1742 
Q 1991 1309 1228 531 
z
" transform="scale(0.015625)"/>
        <path id="DejaVuSans-30" d="M 2034 4250 
Q 1547 4250 1301 3770 
Q 1056 3291 1056 2328 
Q 1056 1369 1301 889 
Q 1547 409 2034 409 
Q 2525 409 2770 889 
Q 3016 1369 3016 2328 
Q 3016 3291 2770 3770 
Q 2525 4250 2034 4250 
z
M 2034 4750 
Q 2819 4750 3233 4129 
Q 3647 3509 3647 2328 
Q 3647 1150 3233 529 
Q 2819 -91 2034 -91 
Q 1250 -91 836 529 
Q 422 1150 422 2328 
Q 422 3509 836 4129 
Q 1250 4750 2034 4750 
z
" transform="scale(0.015625)"/>
        <path id="DejaVuSans-31" d="M 794 531 
L 1825 531 
L 1825 4091 
L 703 3866 
L 703 4441 
L 1819 4666 
L 2450 4666 
L 2450 531 
L 3481 531 
L 3481 0 
L 794 0 
L 794 531 
z
" transform="scale(0.015625)"/>
        <path id="DejaVuSans-2d" d="M 313 2009 
L 1997 2009 
L 1997 1497 
L 313 1497 
L 313 2009 
z
" transform="scale(0.015625)"/>
        <path id="DejaVuSans-37" d="M 525 4666 
L 3525 4666 
L 3525 4397 
L 1831 0 
L 1172 0 
L 2766 4134 
L 525 4134 
L 525 4666 
z
" transform="scale(0.015625)"/>
       </defs>
       <use xlink:href="#DejaVuSans-32"/>
       <use xlink:href="#DejaVuSans-30" transform="translate(63.623047 0)"/>
       <use xlink:href="#DejaVuSans-32" transform="translate(127.246094 0)"/>
       <use xlink:href="#DejaVuSans-31" transform="translate(190.869141 0)"/>
       <use xlink:href="#DejaVuSans-2d" transform="translate(254.492188 0)"/>
       <use xlink:href="#DejaVuSans-30" transform="translate(290.576172 0)"/>
       <use xlink:href="#DejaVuSans-37" transform="translate(354.199219 0)"/>
      </g>
     </g>
    </g>
    <g id="xtick_2">
     <g id="line2d_3">
      <path d="M 202.575821 320.4 
L 202.575821 43.2 
" clip-path="url(#pb55b8058f3)" style="fill: none; stroke-dasharray: 5.12,1.28,0.8,1.28; stroke-dashoffset: 0; stroke: #b0b0b0; stroke-width: 0.8"/>
     </g>
     <g id="line2d_4">
      <g>
       <use xlink:href="#m9d334315d0" x="202.575821" y="320.4" style="fill: #a9a9a9; stroke: #a9a9a9; stroke-width: 0.8"/>
      </g>
     </g>
     <g id="text_2">
      <!-- 2022-01 -->
      <g style="fill: #a9a9a9" transform="translate(181.684415 334.998438) scale(0.1 -0.1)">
       <use xlink:href="#DejaVuSans-32"/>
       <use xlink:href="#DejaVuSans-30" transform="translate(63.623047 0)"/>
       <use xlink:href="#DejaVuSans-32" transform="translate(127.246094 0)"/>
       <use xlink:href="#DejaVuSans-32" transform="translate(190.869141 0)"/>
       <use xlink:href="#DejaVuSans-2d" transform="translate(254.492188 0)"/>
       <use xlink:href="#DejaVuSans-30" transform="translate(290.576172 0)"/>
       <use xlink:href="#DejaVuSans-31" transform="translate(354.199219 0)"/>
      </g>
     </g>
    </g>
    <g id="xtick_3">
     <g id="line2d_5">
      <path d="M 274.682913 320.4 
L 274.682913 43.2 
" clip-path="url(#pb55b8058f3)" style="fill: none; stroke-dasharray: 5.12,1.28,0.8,1.28; stroke-dashoffset: 0; stroke: #b0b0b0; stroke-width: 0.8"/>
     </g>
     <g id="line2d_6">
      <g>
       <use xlink:href="#m9d334315d0" x="274.682913" y="320.4" style="fill: #a9a9a9; stroke: #a9a9a9; stroke-width: 0.8"/>
      </g>
     </g>
     <g id="text_3">
      <!-- 2022-07 -->
      <g style="fill: #a9a9a9" transform="translate(253.791507 334.998438) scale(0.1 -0.1)">
       <use xlink:href="#DejaVuSans-32"/>
       <use xlink:href="#DejaVuSans-30" transform="translate(63.623047 0)"/>
       <use xlink:href="#DejaVuSans-32" transform="translate(127.246094 0)"/>
       <use xlink:href="#DejaVuSans-32" transform="translate(190.869141 0)"/>
       <use xlink:href="#DejaVuSans-2d" transform="translate(254.492188 0)"/>
       <use xlink:href="#DejaVuSans-30" transform="translate(290.576172 0)"/>
       <use xlink:href="#DejaVuSans-37" transform="translate(354.199219 0)"/>
      </g>
     </g>
    </g>
    <g id="xtick_4">
     <g id="line2d_7">
      <path d="M 347.98515 320.4 
L 347.98515 43.2 
" clip-path="url(#pb55b8058f3)" style="fill: none; stroke-dasharray: 5.12,1.28,0.8,1.28; stroke-dashoffset: 0; stroke: #b0b0b0; stroke-width: 0.8"/>
     </g>
     <g id="line2d_8">
      <g>
       <use xlink:href="#m9d334315d0" x="347.98515" y="320.4" style="fill: #a9a9a9; stroke: #a9a9a9; stroke-width: 0.8"/>
      </g>
     </g>
     <g id="text_4">
      <!-- 2023-01 -->
      <g style="fill: #a9a9a9" transform="translate(327.093744 334.998438) scale(0.1 -0.1)">
       <defs>
        <path id="DejaVuSans-33" d="M 2597 2516 
Q 3050 2419 3304 2112 
Q 3559 1806 3559 1356 
Q 3559 666 3084 287 
Q 2609 -91 1734 -91 
Q 1441 -91 1130 -33 
Q 819 25 488 141 
L 488 750 
Q 750 597 1062 519 
Q 1375 441 1716 441 
Q 2309 441 2620 675 
Q 2931 909 2931 1356 
Q 2931 1769 2642 2001 
Q 2353 2234 1838 2234 
L 1294 2234 
L 1294 2753 
L 1863 2753 
Q 2328 2753 2575 2939 
Q 2822 3125 2822 3475 
Q 2822 3834 2567 4026 
Q 2313 4219 1838 4219 
Q 1578 4219 1281 4162 
Q 984 4106 628 3988 
L 628 4550 
Q 988 4650 1302 4700 
Q 1616 4750 1894 4750 
Q 2613 4750 3031 4423 
Q 3450 4097 3450 3541 
Q 3450 3153 3228 2886 
Q 3006 2619 2597 2516 
z
" transform="scale(0.015625)"/>
       </defs>
       <use xlink:href="#DejaVuSans-32"/>
       <use xlink:href="#DejaVuSans-30" transform="translate(63.623047 0)"/>
       <use xlink:href="#DejaVuSans-32" transform="translate(127.246094 0)"/>
       <use xlink:href="#DejaVuSans-33" transform="translate(190.869141 0)"/>
       <use xlink:href="#DejaVuSans-2d" transform="translate(254.492188 0)"/>
       <use xlink:href="#DejaVuSans-30" transform="translate(290.576172 0)"/>
       <use xlink:href="#DejaVuSans-31" transform="translate(354.199219 0)"/>
      </g>
     </g>
    </g>
    <g id="xtick_5">
     <g id="line2d_9">
      <path d="M 420.092242 320.4 
L 420.092242 43.2 
" clip-path="url(#pb55b8058f3)" style="fill: none; stroke-dasharray: 5.12,1.28,0.8,1.28; stroke-dashoffset: 0; stroke: #b0b0b0; stroke-width: 0.8"/>
     </g>
     <g id="line2d_10">
      <g>
       <use xlink:href="#m9d334315d0" x="420.092242" y="320.4" style="fill: #a9a9a9; stroke: #a9a9a9; stroke-width: 0.8"/>
      </g>
     </g>
     <g id="text_5">
      <!-- 2023-07 -->
      <g style="fill: #a9a9a9" transform="translate(399.200836 334.998438) scale(0.1 -0.1)">
       <use xlink:href="#DejaVuSans-32"/>
       <use xlink:href="#DejaVuSans-30" transform="translate(63.623047 0)"/>
       <use xlink:href="#DejaVuSans-32" transform="translate(127.246094 0)"/>
       <use xlink:href="#DejaVuSans-33" transform="translate(190.869141 0)"/>
       <use xlink:href="#DejaVuSans-2d" transform="translate(254.492188 0)"/>
       <use xlink:href="#DejaVuSans-30" transform="translate(290.576172 0)"/>
       <use xlink:href="#DejaVuSans-37" transform="translate(354.199219 0)"/>
      </g>
     </g>
    </g>
    <g id="xtick_6">
     <g id="line2d_11">
      <path d="M 493.394479 320.4 
L 493.394479 43.2 
" clip-path="url(#pb55b8058f3)" style="fill: none; stroke-dasharray: 5.12,1.28,0.8,1.28; stroke-dashoffset: 0; stroke: #b0b0b0; stroke-width: 0.8"/>
     </g>
     <g id="line2d_12">
      <g>
       <use xlink:href="#m9d334315d0" x="493.394479" y="320.4" style="fill: #a9a9a9; stroke: #a9a9a9; stroke-width: 0.8"/>
      </g>
     </g>
     <g id="text_6">
      <!-- 2024-01 -->
      <g style="fill: #a9a9a9" transform="translate(472.503073 334.998438) scale(0.1 -0.1)">
       <defs>
        <path id="DejaVuSans-34" d="M 2419 4116 
L 825 1625 
L 2419 1625 
L 2419 4116 
z
M 2253 4666 
L 3047 4666 
L 3047 1625 
L 3713 1625 
L 3713 1100 
L 3047 1100 
L 3047 0 
L 2419 0 
L 2419 1100 
L 313 1100 
L 313 1709 
L 2253 4666 
z
" transform="scale(0.015625)"/>
       </defs>
       <use xlink:href="#DejaVuSans-32"/>
       <use xlink:href="#DejaVuSans-30" transform="translate(63.623047 0)"/>
       <use xlink:href="#DejaVuSans-32" transform="translate(127.246094 0)"/>
       <use xlink:href="#DejaVuSans-34" transform="translate(190.869141 0)"/>
       <use xlink:href="#DejaVuSans-2d" transform="translate(254.492188 0)"/>
       <use xlink:href="#DejaVuSans-30" transform="translate(290.576172 0)"/>
       <use xlink:href="#DejaVuSans-31" transform="translate(354.199219 0)"/>
      </g>
     </g>
    </g>
    <g id="xtick_7">
     <g id="line2d_13">
      <path d="M 565.899952 320.4 
L 565.899952 43.2 
" clip-path="url(#pb55b8058f3)" style="fill: none; stroke-dasharray: 5.12,1.28,0.8,1.28; stroke-dashoffset: 0; stroke: #b0b0b0; stroke-width: 0.8"/>
     </g>
     <g id="line2d_14">
      <g>
       <use xlink:href="#m9d334315d0" x="565.899952" y="320.4" style="fill: #a9a9a9; stroke: #a9a9a9; stroke-width: 0.8"/>
      </g>
     </g>
     <g id="text_7">
      <!-- 2024-07 -->
      <g style="fill: #a9a9a9" transform="translate(545.008546 334.998438) scale(0.1 -0.1)">
       <use xlink:href="#DejaVuSans-32"/>
       <use xlink:href="#DejaVuSans-30" transform="translate(63.623047 0)"/>
       <use xlink:href="#DejaVuSans-32" transform="translate(127.246094 0)"/>
       <use xlink:href="#DejaVuSans-34" transform="translate(190.869141 0)"/>
       <use xlink:href="#DejaVuSans-2d" transform="translate(254.492188 0)"/>
       <use xlink:href="#DejaVuSans-30" transform="translate(290.576172 0)"/>
       <use xlink:href="#DejaVuSans-37" transform="translate(354.199219 0)"/>
      </g>
     </g>
    </g>
    <g id="xtick_8">
     <g id="line2d_15">
      <path d="M 639.202189 320.4 
L 639.202189 43.2 
" clip-path="url(#pb55b8058f3)" style="fill: none; stroke-dasharray: 5.12,1.28,0.8,1.28; stroke-dashoffset: 0; stroke: #b0b0b0; stroke-width: 0.8"/>
     </g>
     <g id="line2d_16">
      <g>
       <use xlink:href="#m9d334315d0" x="639.202189" y="320.4" style="fill: #a9a9a9; stroke: #a9a9a9; stroke-width: 0.8"/>
      </g>
     </g>
     <g id="text_8">
      <!-- 2025-01 -->
      <g style="fill: #a9a9a9" transform="translate(618.310783 334.998438) scale(0.1 -0.1)">
       <defs>
        <path id="DejaVuSans-35" d="M 691 4666 
L 3169 4666 
L 3169 4134 
L 1269 4134 
L 1269 2991 
Q 1406 3038 1543 3061 
Q 1681 3084 1819 3084 
Q 2600 3084 3056 2656 
Q 3513 2228 3513 1497 
Q 3513 744 3044 326 
Q 2575 -91 1722 -91 
Q 1428 -91 1123 -41 
Q 819 9 494 109 
L 494 744 
Q 775 591 1075 516 
Q 1375 441 1709 441 
Q 2250 441 2565 725 
Q 2881 1009 2881 1497 
Q 2881 1984 2565 2268 
Q 2250 2553 1709 2553 
Q 1456 2553 1204 2497 
Q 953 2441 691 2322 
L 691 4666 
z
" transform="scale(0.015625)"/>
       </defs>
       <use xlink:href="#DejaVuSans-32"/>
       <use xlink:href="#DejaVuSans-30" transform="translate(63.623047 0)"/>
       <use xlink:href="#DejaVuSans-32" transform="translate(127.246094 0)"/>
       <use xlink:href="#DejaVuSans-35" transform="translate(190.869141 0)"/>
       <use xlink:href="#DejaVuSans-2d" transform="translate(254.492188 0)"/>
       <use xlink:href="#DejaVuSans-30" transform="translate(290.576172 0)"/>
       <use xlink:href="#DejaVuSans-31" transform="translate(354.199219 0)"/>
      </g>
     </g>
    </g>
    <g id="xtick_9">
     <g id="line2d_17">
      <path d="M 711.309281 320.4 
L 711.309281 43.2 
" clip-path="url(#pb55b8058f3)" style="fill: none; stroke-dasharray: 5.12,1.28,0.8,1.28; stroke-dashoffset: 0; stroke: #b0b0b0; stroke-width: 0.8"/>
     </g>
     <g id="line2d_18">
      <g>
       <use xlink:href="#m9d334315d0" x="711.309281" y="320.4" style="fill: #a9a9a9; stroke: #a9a9a9; stroke-width: 0.8"/>
      </g>
     </g>
     <g id="text_9">
      <!-- 2025-07 -->
      <g style="fill: #a9a9a9" transform="translate(690.417875 334.998438) scale(0.1 -0.1)">
       <use xlink:href="#DejaVuSans-32"/>
       <use xlink:href="#DejaVuSans-30" transform="translate(63.623047 0)"/>
       <use xlink:href="#DejaVuSans-32" transform="translate(127.246094 0)"/>
       <use xlink:href="#DejaVuSans-35" transform="translate(190.869141 0)"/>
       <use xlink:href="#DejaVuSans-2d" transform="translate(254.492188 0)"/>
       <use xlink:href="#DejaVuSans-30" transform="translate(290.576172 0)"/>
       <use xlink:href="#DejaVuSans-37" transform="translate(354.199219 0)"/>
      </g>
     </g>
    </g>
   </g>
   <g id="matplotlib.axis_2">
    <g id="ytick_1">
     <g id="line2d_19">
      <path d="M 108 307.830784 
L 777.6 307.830784 
" clip-path="url(#pb55b8058f3)" style="fill: none; stroke-dasharray: 5.12,1.28,0.8,1.28; stroke-dashoffset: 0; stroke: #b0b0b0; stroke-width: 0.8"/>
     </g>
     <g id="line2d_20">
      <defs>
       <path id="me5302668df" d="M 0 0 
L -3.5 0 
" style="stroke: #a9a9a9; stroke-width: 0.8"/>
      </defs>
      <g>
       <use xlink:href="#me5302668df" x="108" y="307.830784" style="fill: #a9a9a9; stroke: #a9a9a9; stroke-width: 0.8"/>
      </g>
     </g>
     <g id="text_10">
      <!-- 0 -->
      <g style="fill: #a9a9a9" transform="translate(94.6375 311.630003) scale(0.1 -0.1)">
       <use xlink:href="#DejaVuSans-30"/>
      </g>
     </g>
    </g>
    <g id="ytick_2">
     <g id="line2d_21">
      <path d="M 108 277.046518 
L 777.6 277.046518 
" clip-path="url(#pb55b8058f3)" style="fill: none; stroke-dasharray: 5.12,1.28,0.8,1.28; stroke-dashoffset: 0; stroke: #b0b0b0; stroke-width: 0.8"/>
     </g>
     <g id="line2d_22">
      <g>
       <use xlink:href="#me5302668df" x="108" y="277.046518" style="fill: #a9a9a9; stroke: #a9a9a9; stroke-width: 0.8"/>
      </g>
     </g>
     <g id="text_11">
      <!-- 1000 -->
      <g style="fill: #a9a9a9" transform="translate(75.55 280.845737) scale(0.1 -0.1)">
       <use xlink:href="#DejaVuSans-31"/>
       <use xlink:href="#DejaVuSans-30" transform="translate(63.623047 0)"/>
       <use xlink:href="#DejaVuSans-30" transform="translate(127.246094 0)"/>
       <use xlink:href="#DejaVuSans-30" transform="translate(190.869141 0)"/>
      </g>
     </g>
    </g>
    <g id="ytick_3">
     <g id="line2d_23">
      <path d="M 108 246.262253 
L 777.6 246.262253 
" clip-path="url(#pb55b8058f3)" style="fill: none; stroke-dasharray: 5.12,1.28,0.8,1.28; stroke-dashoffset: 0; stroke: #b0b0b0; stroke-width: 0.8"/>
     </g>
     <g id="line2d_24">
      <g>
       <use xlink:href="#me5302668df" x="108" y="246.262253" style="fill: #a9a9a9; stroke: #a9a9a9; stroke-width: 0.8"/>
      </g>
     </g>
     <g id="text_12">
      <!-- 2000 -->
      <g style="fill: #a9a9a9" transform="translate(75.55 250.061471) scale(0.1 -0.1)">
       <use xlink:href="#DejaVuSans-32"/>
       <use xlink:href="#DejaVuSans-30" transform="translate(63.623047 0)"/>
       <use xlink:href="#DejaVuSans-30" transform="translate(127.246094 0)"/>
       <use xlink:href="#DejaVuSans-30" transform="translate(190.869141 0)"/>
      </g>
     </g>
    </g>
    <g id="ytick_4">
     <g id="line2d_25">
      <path d="M 108 215.477987 
L 777.6 215.477987 
" clip-path="url(#pb55b8058f3)" style="fill: none; stroke-dasharray: 5.12,1.28,0.8,1.28; stroke-dashoffset: 0; stroke: #b0b0b0; stroke-width: 0.8"/>
     </g>
     <g id="line2d_26">
      <g>
       <use xlink:href="#me5302668df" x="108" y="215.477987" style="fill: #a9a9a9; stroke: #a9a9a9; stroke-width: 0.8"/>
      </g>
     </g>
     <g id="text_13">
      <!-- 3000 -->
      <g style="fill: #a9a9a9" transform="translate(75.55 219.277206) scale(0.1 -0.1)">
       <use xlink:href="#DejaVuSans-33"/>
       <use xlink:href="#DejaVuSans-30" transform="translate(63.623047 0)"/>
       <use xlink:href="#DejaVuSans-30" transform="translate(127.246094 0)"/>
       <use xlink:href="#DejaVuSans-30" transform="translate(190.869141 0)"/>
      </g>
     </g>
    </g>
    <g id="ytick_5">
     <g id="line2d_27">
      <path d="M 108 184.693721 
L 777.6 184.693721 
" clip-path="url(#pb55b8058f3)" style="fill: none; stroke-dasharray: 5.12,1.28,0.8,1.28; stroke-dashoffset: 0; stroke: #b0b0b0; stroke-width: 0.8"/>
     </g>
     <g id="line2d_28">
      <g>
       <use xlink:href="#me5302668df" x="108" y="184.693721" style="fill: #a9a9a9; stroke: #a9a9a9; stroke-width: 0.8"/>
      </g>
     </g>
     <g id="text_14">
      <!-- 4000 -->
      <g style="fill: #a9a9a9" transform="translate(75.55 188.49294) scale(0.1 -0.1)">
       <use xlink:href="#DejaVuSans-34"/>
       <use xlink:href="#DejaVuSans-30" transform="translate(63.623047 0)"/>
       <use xlink:href="#DejaVuSans-30" transform="translate(127.246094 0)"/>
       <use xlink:href="#DejaVuSans-30" transform="translate(190.869141 0)"/>
      </g>
     </g>
    </g>
    <g id="ytick_6">
     <g id="line2d_29">
      <path d="M 108 153.909455 
L 777.6 153.909455 
" clip-path="url(#pb55b8058f3)" style="fill: none; stroke-dasharray: 5.12,1.28,0.8,1.28; stroke-dashoffset: 0; stroke: #b0b0b0; stroke-width: 0.8"/>
     </g>
     <g id="line2d_30">
      <g>
       <use xlink:href="#me5302668df" x="108" y="153.909455" style="fill: #a9a9a9; stroke: #a9a9a9; stroke-width: 0.8"/>
      </g>
     </g>
     <g id="text_15">
      <!-- 5000 -->
      <g style="fill: #a9a9a9" transform="translate(75.55 157.708674) scale(0.1 -0.1)">
       <use xlink:href="#DejaVuSans-35"/>
       <use xlink:href="#DejaVuSans-30" transform="translate(63.623047 0)"/>
       <use xlink:href="#DejaVuSans-30" transform="translate(127.246094 0)"/>
       <use xlink:href="#DejaVuSans-30" transform="translate(190.869141 0)"/>
      </g>
     </g>
    </g>
    <g id="ytick_7">
     <g id="line2d_31">
      <path d="M 108 123.125189 
L 777.6 123.125189 
" clip-path="url(#pb55b8058f3)" style="fill: none; stroke-dasharray: 5.12,1.28,0.8,1.28; stroke-dashoffset: 0; stroke: #b0b0b0; stroke-width: 0.8"/>
     </g>
     <g id="line2d_32">
      <g>
       <use xlink:href="#me5302668df" x="108" y="123.125189" style="fill: #a9a9a9; stroke: #a9a9a9; stroke-width: 0.8"/>
      </g>
     </g>
     <g id="text_16">
      <!-- 6000 -->
      <g style="fill: #a9a9a9" transform="translate(75.55 126.924408) scale(0.1 -0.1)">
       <defs>
        <path id="DejaVuSans-36" d="M 2113 2584 
Q 1688 2584 1439 2293 
Q 1191 2003 1191 1497 
Q 1191 994 1439 701 
Q 1688 409 2113 409 
Q 2538 409 2786 701 
Q 3034 994 3034 1497 
Q 3034 2003 2786 2293 
Q 2538 2584 2113 2584 
z
M 3366 4563 
L 3366 3988 
Q 3128 4100 2886 4159 
Q 2644 4219 2406 4219 
Q 1781 4219 1451 3797 
Q 1122 3375 1075 2522 
Q 1259 2794 1537 2939 
Q 1816 3084 2150 3084 
Q 2853 3084 3261 2657 
Q 3669 2231 3669 1497 
Q 3669 778 3244 343 
Q 2819 -91 2113 -91 
Q 1303 -91 875 529 
Q 447 1150 447 2328 
Q 447 3434 972 4092 
Q 1497 4750 2381 4750 
Q 2619 4750 2861 4703 
Q 3103 4656 3366 4563 
z
" transform="scale(0.015625)"/>
       </defs>
       <use xlink:href="#DejaVuSans-36"/>
       <use xlink:href="#DejaVuSans-30" transform="translate(63.623047 0)"/>
       <use xlink:href="#DejaVuSans-30" transform="translate(127.246094 0)"/>
       <use xlink:href="#DejaVuSans-30" transform="translate(190.869141 0)"/>
      </g>
     </g>
    </g>
    <g id="ytick_8">
     <g id="line2d_33">
      <path d="M 108 92.340924 
L 777.6 92.340924 
" clip-path="url(#pb55b8058f3)" style="fill: none; stroke-dasharray: 5.12,1.28,0.8,1.28; stroke-dashoffset: 0; stroke: #b0b0b0; stroke-width: 0.8"/>
     </g>
     <g id="line2d_34">
      <g>
       <use xlink:href="#me5302668df" x="108" y="92.340924" style="fill: #a9a9a9; stroke: #a9a9a9; stroke-width: 0.8"/>
      </g>
     </g>
     <g id="text_17">
      <!-- 7000 -->
      <g style="fill: #a9a9a9" transform="translate(75.55 96.140142) scale(0.1 -0.1)">
       <use xlink:href="#DejaVuSans-37"/>
       <use xlink:href="#DejaVuSans-30" transform="translate(63.623047 0)"/>
       <use xlink:href="#DejaVuSans-30" transform="translate(127.246094 0)"/>
       <use xlink:href="#DejaVuSans-30" transform="translate(190.869141 0)"/>
      </g>
     </g>
    </g>
    <g id="ytick_9">
     <g id="line2d_35">
      <path d="M 108 61.556658 
L 777.6 61.556658 
" clip-path="url(#pb55b8058f3)" style="fill: none; stroke-dasharray: 5.12,1.28,0.8,1.28; stroke-dashoffset: 0; stroke: #b0b0b0; stroke-width: 0.8"/>
     </g>
     <g id="line2d_36">
      <g>
       <use xlink:href="#me5302668df" x="108" y="61.556658" style="fill: #a9a9a9; stroke: #a9a9a9; stroke-width: 0.8"/>
      </g>
     </g>
     <g id="text_18">
      <!-- 8000 -->
      <g style="fill: #a9a9a9" transform="translate(75.55 65.355876) scale(0.1 -0.1)">
       <defs>
        <path id="DejaVuSans-38" d="M 2034 2216 
Q 1584 2216 1326 1975 
Q 1069 1734 1069 1313 
Q 1069 891 1326 650 
Q 1584 409 2034 409 
Q 2484 409 2743 651 
Q 3003 894 3003 1313 
Q 3003 1734 2745 1975 
Q 2488 2216 2034 2216 
z
M 1403 2484 
Q 997 2584 770 2862 
Q 544 3141 544 3541 
Q 544 4100 942 4425 
Q 1341 4750 2034 4750 
Q 2731 4750 3128 4425 
Q 3525 4100 3525 3541 
Q 3525 3141 3298 2862 
Q 3072 2584 2669 2484 
Q 3125 2378 3379 2068 
Q 3634 1759 3634 1313 
Q 3634 634 3220 271 
Q 2806 -91 2034 -91 
Q 1263 -91 848 271 
Q 434 634 434 1313 
Q 434 1759 690 2068 
Q 947 2378 1403 2484 
z
M 1172 3481 
Q 1172 3119 1398 2916 
Q 1625 2713 2034 2713 
Q 2441 2713 2670 2916 
Q 2900 3119 2900 3481 
Q 2900 3844 2670 4047 
Q 2441 4250 2034 4250 
Q 1625 4250 1398 4047 
Q 1172 3844 1172 3481 
z
" transform="scale(0.015625)"/>
       </defs>
       <use xlink:href="#DejaVuSans-38"/>
       <use xlink:href="#DejaVuSans-30" transform="translate(63.623047 0)"/>
       <use xlink:href="#DejaVuSans-30" transform="translate(127.246094 0)"/>
       <use xlink:href="#DejaVuSans-30" transform="translate(190.869141 0)"/>
      </g>
     </g>
    </g>
   </g>
   <g id="line2d_37">
    <path d="M 138.436364 307.738431 
L 140.826654 307.522942 
L 141.225036 307.338236 
L 142.818563 307.122746 
L 144.412089 306.784119 
L 145.208853 306.660982 
L 147.200762 306.476277 
L 147.997525 306.13765 
L 148.395907 305.583533 
L 148.794288 305.306474 
L 149.19267 304.382946 
L 149.591052 304.321378 
L 149.989434 303.982751 
L 150.786197 303.551771 
L 152.379724 302.228048 
L 153.973251 301.396873 
L 155.168396 300.811972 
L 155.566778 300.134718 
L 156.363541 299.519032 
L 156.761923 299.334327 
L 160.74574 298.718642 
L 161.144122 298.533936 
L 163.932794 298.287662 
L 165.526321 297.887466 
L 168.713375 297.425702 
L 169.111756 297.210213 
L 169.510138 297.148644 
L 170.306901 296.871586 
L 173.095574 296.379037 
L 173.892337 296.132763 
L 177.477772 295.517078 
L 178.274536 295.332372 
L 179.868063 295.116882 
L 180.664826 294.870608 
L 181.063208 294.285707 
L 182.258353 293.793159 
L 183.453498 293.454532 
L 183.85188 293.239042 
L 184.648644 293.085121 
L 186.24217 292.592573 
L 187.038934 292.531004 
L 187.835697 292.315514 
L 189.429224 291.884535 
L 189.827606 291.85375 
L 190.624369 291.453555 
L 191.022751 291.391986 
L 191.421133 291.176496 
L 195.803332 290.40689 
L 197.396859 289.914342 
L 197.79524 289.637283 
L 199.787149 288.960029 
L 200.583912 288.375128 
L 201.779058 288.128854 
L 206.95802 286.589641 
L 207.356402 286.528072 
L 208.949929 285.881603 
L 209.34831 285.820034 
L 210.145074 285.481407 
L 210.941837 285.450623 
L 212.136982 285.081212 
L 212.535364 285.081212 
L 212.933746 284.896506 
L 213.730509 284.804153 
L 214.128891 284.650232 
L 215.722418 284.588664 
L 216.519181 284.434742 
L 217.315945 284.003763 
L 218.51109 283.572783 
L 219.307853 283.141803 
L 220.502999 282.618471 
L 222.096525 281.787295 
L 222.494907 281.325531 
L 223.291671 280.032592 
L 223.690052 279.909455 
L 224.088434 279.909455 
L 225.681961 279.016711 
L 226.080343 278.924359 
L 226.478724 278.524163 
L 227.275488 278.185536 
L 228.072251 277.816125 
L 228.470633 277.323577 
L 228.869015 276.646323 
L 229.267396 276.369265 
L 229.665778 275.630442 
L 230.06416 275.168678 
L 232.45445 273.814171 
L 234.047977 272.336526 
L 234.446359 271.382214 
L 234.844741 270.766528 
L 235.243122 270.427901 
L 235.641504 270.243196 
L 237.235031 268.857904 
L 238.430176 267.811239 
L 239.22694 266.795358 
L 240.422085 265.902614 
L 242.015612 264.886733 
L 242.413993 264.732812 
L 244.00752 263.747716 
L 244.405902 263.56301 
L 246.397811 261.654386 
L 247.194574 261.315759 
L 247.991337 260.730858 
L 248.389719 260.484583 
L 248.788101 260.423015 
L 249.983246 259.714977 
L 250.381628 259.253213 
L 252.373536 258.114195 
L 252.771918 257.960274 
L 253.967063 257.098314 
L 259.942789 254.881847 
L 260.739553 254.11224 
L 261.934698 253.496555 
L 262.731461 252.973223 
L 263.528225 252.726948 
L 263.926606 252.44989 
L 264.324988 252.326753 
L 265.520133 251.495578 
L 267.512042 251.033814 
L 268.707187 250.294991 
L 269.902332 250.017933 
L 270.300714 249.92558 
L 271.495859 249.002052 
L 273.089386 248.540288 
L 273.487768 248.201661 
L 275.878058 247.339702 
L 276.674822 247.185781 
L 277.471585 246.847154 
L 280.260257 245.769704 
L 281.05702 245.677352 
L 282.252166 245.246372 
L 284.244074 244.230491 
L 286.634365 242.845199 
L 287.431128 242.629709 
L 288.626273 242.014024 
L 289.423037 241.860103 
L 290.2198 241.367554 
L 291.016564 241.152065 
L 292.211709 240.659516 
L 293.805236 240.444026 
L 294.601999 240.013047 
L 295.000381 239.643635 
L 295.398762 238.904813 
L 296.992289 238.443049 
L 298.585816 237.704227 
L 300.976107 236.534425 
L 301.77287 236.134229 
L 302.968015 235.887955 
L 304.16316 235.27227 
L 304.561542 235.210701 
L 306.553451 234.19482 
L 307.350214 233.671488 
L 308.545359 233.425214 
L 310.537268 232.901881 
L 310.93565 232.563254 
L 311.732413 232.286196 
L 313.724322 231.455021 
L 314.122703 231.147178 
L 314.521085 230.993257 
L 315.317849 230.531493 
L 316.911376 230.00816 
L 317.708139 229.484828 
L 318.106521 229.053848 
L 318.504902 228.807574 
L 318.903284 228.715221 
L 319.700048 228.037967 
L 320.098429 227.976399 
L 320.496811 227.299145 
L 320.895193 227.114439 
L 321.293574 226.775812 
L 321.691956 226.714244 
L 322.48872 226.190911 
L 323.285483 225.913853 
L 323.683865 225.60601 
L 324.082247 225.452089 
L 326.074155 224.189934 
L 327.2693 223.72817 
L 328.066064 223.358759 
L 328.464446 223.112485 
L 328.862827 222.404447 
L 329.659591 221.788761 
L 330.057972 221.696409 
L 332.448263 220.495822 
L 333.245026 220.157195 
L 334.04179 219.572294 
L 335.236935 218.433276 
L 336.033698 217.940728 
L 336.43208 217.478964 
L 338.025607 216.339946 
L 338.82237 215.508771 
L 339.619134 215.231713 
L 340.415897 214.677596 
L 341.611042 214.031126 
L 342.009424 213.969558 
L 345.59486 212.091718 
L 346.391623 211.876228 
L 347.98515 211.291327 
L 348.383532 210.9527 
L 349.977059 210.30623 
L 350.37544 210.183093 
L 351.172204 209.659761 
L 351.968967 209.321134 
L 352.765731 208.736233 
L 353.562494 207.104667 
L 354.359257 206.181139 
L 355.554403 205.534669 
L 356.351166 205.196042 
L 356.749548 205.134473 
L 357.546311 204.765062 
L 359.139838 204.210946 
L 359.936602 203.749182 
L 360.733365 203.348986 
L 361.131747 203.225849 
L 363.522037 201.748204 
L 363.920419 201.28644 
L 365.115564 200.578402 
L 365.513946 200.424481 
L 366.310709 199.931933 
L 367.904236 199.039189 
L 368.302618 198.946836 
L 368.701 198.608209 
L 371.489672 197.653897 
L 371.888053 197.376839 
L 372.684817 197.130564 
L 373.48158 196.791937 
L 373.879962 196.453311 
L 375.473489 195.868409 
L 376.270252 195.283508 
L 377.067016 194.944882 
L 377.863779 194.298412 
L 378.660543 194.052138 
L 379.058924 193.682727 
L 379.457306 193.621158 
L 380.254069 193.005473 
L 382.245978 191.804886 
L 383.042742 191.558612 
L 383.441123 191.312338 
L 383.839505 191.25077 
L 385.433032 190.481163 
L 386.628177 190.080968 
L 387.424941 189.95783 
L 387.823322 189.773125 
L 388.221704 189.711556 
L 389.018467 189.342145 
L 389.416849 189.311361 
L 391.010376 188.695676 
L 392.205521 187.833716 
L 392.603903 187.679795 
L 393.400666 187.218031 
L 393.799048 187.094894 
L 396.189338 185.709602 
L 396.58772 185.617249 
L 397.782865 184.878427 
L 398.97801 184.447447 
L 399.774774 184.170388 
L 401.368301 183.616272 
L 402.165064 183.339213 
L 403.758591 183.000586 
L 404.156973 182.815881 
L 404.953736 182.600391 
L 405.352118 182.415685 
L 405.7505 182.354117 
L 406.148881 182.138627 
L 406.945645 181.984706 
L 408.14079 181.553726 
L 409.335935 181.36902 
L 411.726226 180.907256 
L 412.921371 180.630198 
L 413.319752 180.445492 
L 414.116516 180.291571 
L 414.913279 180.076081 
L 415.710043 179.70667 
L 416.108425 179.552749 
L 416.506806 179.552749 
L 420.889005 178.167457 
L 421.287387 177.951967 
L 421.685769 177.951967 
L 422.482532 177.644124 
L 422.880914 177.213144 
L 425.271204 176.197264 
L 426.864731 175.643147 
L 427.263113 175.396873 
L 428.458258 175.027462 
L 429.255021 174.811972 
L 429.653403 174.534913 
L 430.051785 174.44256 
L 430.450167 174.073149 
L 431.645312 173.826875 
L 432.442075 173.457464 
L 432.840457 172.964916 
L 437.222656 171.979819 
L 437.621038 171.979819 
L 438.019419 171.795114 
L 439.612946 171.487271 
L 440.011328 171.302565 
L 441.604855 170.994723 
L 442.401618 170.656096 
L 443.198382 170.502174 
L 445.19029 169.978842 
L 446.385436 169.609431 
L 448.377344 168.962961 
L 449.174108 168.624334 
L 449.970871 168.316492 
L 450.369253 168.039433 
L 451.166016 167.793159 
L 453.954688 166.71571 
L 455.548215 166.531004 
L 458.735269 165.330418 
L 459.133651 165.022575 
L 459.532032 164.930222 
L 459.930414 164.714732 
L 460.328796 164.683948 
L 464.710995 163.052382 
L 466.702903 162.498265 
L 467.499667 162.09807 
L 468.694812 161.821011 
L 470.288339 160.466504 
L 471.881866 159.758466 
L 473.475393 159.081212 
L 473.873774 158.988859 
L 474.272156 158.711801 
L 475.06892 158.465527 
L 475.467301 158.188468 
L 477.45921 157.511214 
L 481.443027 155.448668 
L 482.239791 155.079257 
L 482.638172 154.771415 
L 483.434936 154.494356 
L 485.825226 153.324554 
L 486.223608 153.232201 
L 487.418753 152.678085 
L 489.01228 152.123968 
L 489.809043 151.785341 
L 490.605807 151.662204 
L 491.004188 151.385145 
L 492.597715 151.077303 
L 493.394479 150.738676 
L 495.784769 149.568874 
L 496.183151 149.507305 
L 497.378296 148.799267 
L 498.573441 148.368287 
L 501.362113 147.167701 
L 501.760495 147.044564 
L 502.158877 146.767505 
L 502.95564 146.675153 
L 503.354022 146.398094 
L 504.150785 146.274957 
L 504.947549 145.874762 
L 505.345931 145.690056 
L 506.142694 145.474566 
L 506.939457 145.228292 
L 508.134603 144.766528 
L 509.329748 144.366333 
L 510.524893 144.089274 
L 512.11842 143.412021 
L 512.915183 142.981041 
L 514.50871 142.149866 
L 515.305474 141.96516 
L 515.703855 141.718886 
L 516.102237 141.626533 
L 518.094146 140.641437 
L 521.281199 139.502419 
L 521.679581 139.379282 
L 522.476345 138.948302 
L 524.468253 138.240264 
L 526.858544 137.255167 
L 528.45207 136.485561 
L 532.435888 134.884779 
L 533.232651 134.484583 
L 533.631033 134.392231 
L 534.427796 134.084388 
L 534.826178 134.084388 
L 535.622941 133.714977 
L 537.216468 132.360469 
L 537.61485 132.237332 
L 538.013232 131.991058 
L 539.208377 131.652431 
L 539.606759 131.344588 
L 540.00514 131.252236 
L 541.200286 130.513413 
L 541.598667 130.236355 
L 542.793812 129.774591 
L 543.192194 129.559101 
L 544.387339 129.282043 
L 546.379248 128.574004 
L 547.176011 128.32773 
L 548.371157 127.681261 
L 549.16792 127.281065 
L 549.964683 127.065575 
L 551.55821 126.326753 
L 551.956592 126.203616 
L 552.753356 125.834205 
L 554.745264 125.156951 
L 555.940409 124.387344 
L 556.338791 124.294991 
L 557.135554 123.894796 
L 557.932318 123.586953 
L 558.3307 123.217542 
L 559.525845 122.755778 
L 559.924227 122.69421 
L 561.517753 121.955387 
L 562.712899 121.585976 
L 563.11128 121.40127 
L 563.509662 121.339702 
L 564.306426 121.001075 
L 565.501571 120.754801 
L 566.298334 120.293037 
L 566.696716 120.139116 
L 567.095098 119.831273 
L 568.290243 119.52343 
L 569.087006 119.215588 
L 569.88377 118.876961 
L 571.477297 118.230491 
L 574.265969 117.491669 
L 575.062732 117.183826 
L 576.656259 116.875983 
L 577.453022 116.722062 
L 578.648168 116.260298 
L 579.843313 116.014024 
L 582.233603 114.597948 
L 583.428748 113.859125 
L 585.819039 113.120303 
L 586.21742 112.81246 
L 589.802856 111.519521 
L 590.599619 111.242463 
L 591.794764 110.71913 
L 595.3802 109.27227 
L 596.176963 108.964427 
L 597.77049 108.317957 
L 598.168872 107.948546 
L 598.567254 107.886978 
L 600.160781 107.240508 
L 601.754307 106.840313 
L 602.152689 106.778744 
L 602.551071 106.594039 
L 602.949453 106.563254 
L 603.746216 106.286196 
L 604.144598 106.255412 
L 605.339743 105.793648 
L 606.93327 105.331884 
L 607.730033 104.716198 
L 609.32356 103.823455 
L 609.721942 103.731102 
L 610.518705 103.423259 
L 613.705759 101.853262 
L 614.104141 101.637772 
L 614.502523 101.268361 
L 616.494431 100.775812 
L 617.689576 100.221696 
L 618.48634 100.006206 
L 618.884722 99.8215 
L 619.283103 99.482873 
L 621.275012 98.774835 
L 626.453974 96.866211 
L 627.250738 96.712289 
L 629.242646 96.06582 
L 630.437792 95.542487 
L 633.226464 94.711312 
L 634.023227 94.249548 
L 636.811899 93.295236 
L 638.405426 92.771903 
L 639.600571 92.494845 
L 640.795716 92.125434 
L 641.194098 92.033081 
L 641.59248 91.756022 
L 642.389243 91.571317 
L 643.98277 91.109553 
L 644.381152 91.078769 
L 645.177915 90.709357 
L 647.966587 90.001319 
L 649.560114 89.416418 
L 649.958496 89.416418 
L 651.153641 89.13936 
L 651.950405 88.985439 
L 652.747168 88.769949 
L 653.942313 88.123479 
L 655.137458 87.754068 
L 657.92613 86.799756 
L 659.519657 85.999365 
L 660.714802 85.722306 
L 661.511566 85.476032 
L 662.308329 85.075837 
L 662.706711 84.73721 
L 663.503475 84.490936 
L 663.901856 84.244662 
L 664.69862 84.152309 
L 667.487292 83.351918 
L 668.682437 83.105644 
L 669.877582 82.797801 
L 670.674346 82.613096 
L 671.869491 81.99741 
L 677.048453 79.996433 
L 677.845217 79.873296 
L 678.64198 79.719375 
L 679.040362 79.719375 
L 680.235507 79.349963 
L 681.430652 78.980552 
L 685.016088 77.964671 
L 685.812851 77.749182 
L 686.211233 77.656829 
L 686.609614 77.410555 
L 687.406378 77.256633 
L 688.203141 77.16428 
L 688.601523 76.948791 
L 688.999905 76.918006 
L 689.796668 76.394674 
L 691.390195 76.056047 
L 692.186959 75.71742 
L 692.983722 75.440362 
L 693.780485 75.224872 
L 694.577249 74.886245 
L 694.975631 74.824676 
L 695.772394 74.547618 
L 696.967539 74.208991 
L 697.764303 74.147422 
L 698.561066 73.870364 
L 698.959448 73.716443 
L 699.756211 73.593306 
L 701.349738 72.885268 
L 701.74812 72.823699 
L 702.544883 72.515856 
L 704.935174 72.115661 
L 705.731937 71.869387 
L 706.130319 71.807818 
L 706.927082 71.469191 
L 707.325464 71.407623 
L 707.723846 71.192133 
L 708.520609 70.514879 
L 712.504426 69.037234 
L 714.894717 68.390765 
L 715.293099 68.082922 
L 716.886625 67.374884 
L 718.480152 66.69763 
L 719.276916 66.451356 
L 720.472061 65.989592 
L 721.268824 65.650965 
L 722.862351 64.727437 
L 723.260733 64.635084 
L 724.455878 64.019399 
L 725.252642 63.711556 
L 727.24455 63.003518 
L 727.642932 62.664891 
L 728.041314 62.572538 
L 728.838077 62.07999 
L 730.033222 61.710579 
L 730.829986 61.402736 
L 731.626749 61.033325 
L 732.025131 61.002541 
L 734.01704 60.232934 
L 734.813803 60.079013 
L 735.610566 59.494112 
L 736.008948 59.494112 
L 737.602475 58.909211 
L 739.196002 58.570584 
L 740.789529 57.89333 
L 741.187911 57.89333 
L 742.383056 57.493135 
L 743.179819 57.369998 
L 743.976583 57.062155 
L 744.773346 56.44647 
L 746.366873 55.892353 
L 747.163636 55.8 
L 747.163636 55.8 
" clip-path="url(#pb55b8058f3)" style="fill: none; stroke: #1f77b4; stroke-width: 1.5; stroke-linecap: square"/>
   </g>
   <g id="line2d_38">
    <path d="M 138.834745 307.8 
L 142.420181 307.707647 
L 145.607235 307.553726 
L 147.200762 307.553726 
L 147.599143 307.430589 
L 149.591052 307.338236 
L 151.981342 307.061178 
L 154.371633 306.968825 
L 155.168396 306.876472 
L 157.957068 306.753335 
L 160.74574 306.660982 
L 162.737649 306.599414 
L 167.916611 306.507061 
L 169.90852 306.445492 
L 173.493955 306.35314 
L 175.087482 306.322355 
L 179.071299 306.230002 
L 180.664826 306.076081 
L 182.258353 306.045297 
L 184.648644 305.952944 
L 186.24217 305.92216 
L 188.234079 305.860591 
L 189.827606 305.70667 
L 193.413041 305.614317 
L 194.209805 305.552749 
L 195.803332 305.460396 
L 198.193622 305.368043 
L 199.787149 305.27569 
L 206.95802 304.813926 
L 209.746692 304.721573 
L 210.941837 304.598436 
L 212.933746 304.506084 
L 216.917563 304.290594 
L 220.90138 304.229025 
L 222.494907 304.04432 
L 224.486816 303.951967 
L 228.470633 303.551771 
L 230.860923 303.243929 
L 232.45445 303.18236 
L 235.641504 302.75138 
L 238.031794 302.689812 
L 239.22694 302.566675 
L 240.422085 302.474322 
L 251.576773 301.581578 
L 252.373536 301.427657 
L 254.763827 301.335304 
L 261.137934 300.935109 
L 263.926606 300.842756 
L 265.520133 300.65805 
L 267.512042 300.565698 
L 269.902332 300.473345 
L 271.894241 300.380992 
L 273.487768 300.350208 
L 275.479676 300.288639 
L 276.27644 300.165502 
L 281.853784 300.073149 
L 282.650547 299.980796 
L 287.431128 299.888444 
L 291.016564 299.703738 
L 293.805236 299.611385 
L 295.398762 299.42668 
L 298.187435 299.334327 
L 298.984198 299.21119 
L 300.976107 299.149621 
L 304.959924 299.088053 
L 306.553451 298.934131 
L 308.146978 298.903347 
L 309.342123 298.810994 
L 310.93565 298.657073 
L 314.919467 298.441583 
L 318.903284 298.34923 
L 322.48872 298.164525 
L 323.683865 298.133741 
L 324.480628 298.010603 
L 326.472537 297.918251 
L 327.2693 297.856682 
L 328.066064 297.795114 
L 328.862827 297.733545 
L 332.846644 297.641192 
L 341.611042 297.056291 
L 342.407806 296.994723 
L 343.602951 296.90237 
L 346.391623 296.810017 
L 348.383532 296.748449 
L 353.960876 296.656096 
L 354.757639 296.532959 
L 360.334983 296.440606 
L 364.318801 296.225116 
L 365.115564 296.194332 
L 365.912327 296.101979 
L 367.904236 296.009626 
L 369.896145 295.948058 
L 371.888053 295.855705 
L 373.879962 295.794136 
L 377.465397 295.701784 
L 379.855688 295.609431 
L 385.433032 295.517078 
L 389.815231 295.270804 
L 391.408758 295.209235 
L 392.603903 295.116882 
L 398.181247 295.02453 
L 400.571537 294.932177 
L 407.742408 294.839824 
L 409.335935 294.80904 
L 414.116516 294.747471 
L 414.913279 294.685903 
L 420.490624 294.59355 
L 422.08415 294.562766 
L 432.442075 294.470413 
L 434.832366 294.37806 
L 451.564398 294.285707 
L 453.556307 294.224139 
L 463.914231 294.16257 
L 464.710995 294.101002 
L 466.702903 294.039433 
L 467.898049 293.916296 
L 470.288339 293.823943 
L 473.077011 293.700806 
L 476.662446 293.608453 
L 478.654355 293.546885 
L 481.443027 293.454532 
L 484.630081 293.300611 
L 486.62199 293.208258 
L 488.215516 293.177474 
L 494.988006 293.085121 
L 497.378296 292.992768 
L 501.760495 292.900415 
L 504.549167 292.777278 
L 507.337839 292.71571 
L 508.134603 292.654141 
L 517.695764 292.561788 
L 521.679581 292.346299 
L 524.468253 292.253946 
L 528.850452 292.007672 
L 531.639124 291.915319 
L 533.232651 291.884535 
L 536.021323 291.792182 
L 538.013232 291.576692 
L 541.997049 291.484339 
L 542.793812 291.391986 
L 546.77763 291.299634 
L 548.769538 291.238065 
L 553.151737 291.207281 
L 553.948501 291.114928 
L 558.3307 291.022575 
L 559.127463 290.961007 
L 567.891861 290.868654 
L 570.282151 290.776301 
L 576.257877 290.683948 
L 577.851404 290.653164 
L 581.43684 290.591595 
L 582.233603 290.499243 
L 587.412565 290.40689 
L 589.404474 290.345321 
L 596.575345 290.252968 
L 597.77049 290.160616 
L 598.965635 290.068263 
L 600.160781 289.97591 
L 606.136506 289.883557 
L 608.526797 289.791204 
L 619.283103 289.698852 
L 622.868539 289.514146 
L 627.649119 289.452578 
L 628.445883 289.391009 
L 634.421609 289.329441 
L 635.218372 289.267872 
L 639.600571 289.175519 
L 641.194098 289.144735 
L 647.966587 289.052382 
L 648.763351 288.990814 
L 655.934222 288.898461 
L 657.527749 288.867677 
L 661.511566 288.775324 
L 664.300238 288.652187 
L 668.682437 288.559834 
L 671.471109 288.436697 
L 675.056545 288.344344 
L 675.853308 288.282775 
L 684.617706 288.190423 
L 687.007996 288.09807 
L 689.796668 288.005717 
L 691.788577 287.944149 
L 703.341647 287.851796 
L 705.731937 287.759443 
L 712.106045 287.66709 
L 714.496335 287.574737 
L 719.675297 287.482385 
L 722.065588 287.390032 
L 725.252642 287.297679 
L 727.642932 287.205326 
L 743.578201 287.112973 
L 746.765255 286.959052 
L 747.163636 286.959052 
L 747.163636 286.959052 
" clip-path="url(#pb55b8058f3)" style="fill: none; stroke: #ff7f0e; stroke-width: 1.5; stroke-linecap: square"/>
   </g>
   <g id="patch_3">
    <path d="M 108 320.4 
L 108 43.2 
" style="fill: none; stroke: #a9a9a9; stroke-width: 0.8; stroke-linejoin: miter; stroke-linecap: square"/>
   </g>
   <g id="patch_4">
    <path d="M 777.6 320.4 
L 777.6 43.2 
" style="fill: none"/>
   </g>
   <g id="patch_5">
    <path d="M 108 320.4 
L 777.6 320.4 
" style="fill: none; stroke: #a9a9a9; stroke-width: 0.8; stroke-linejoin: miter; stroke-linecap: square"/>
   </g>
   <g id="patch_6">
    <path d="M 108 43.2 
L 777.6 43.2 
" style="fill: none"/>
   </g>
   <g id="text_19">
    <!-- get_subscribe history -->
    <g style="fill: #a9a9a9" transform="translate(378.6075 37.2) scale(0.12 -0.12)">
     <defs>
      <path id="DejaVuSans-67" d="M 2906 1791 
Q 2906 2416 2648 2759 
Q 2391 3103 1925 3103 
Q 1463 3103 1205 2759 
Q 947 2416 947 1791 
Q 947 1169 1205 825 
Q 1463 481 1925 481 
Q 2391 481 2648 825 
Q 2906 1169 2906 1791 
z
M 3481 434 
Q 3481 -459 3084 -895 
Q 2688 -1331 1869 -1331 
Q 1566 -1331 1297 -1286 
Q 1028 -1241 775 -1147 
L 775 -588 
Q 1028 -725 1275 -790 
Q 1522 -856 1778 -856 
Q 2344 -856 2625 -561 
Q 2906 -266 2906 331 
L 2906 616 
Q 2728 306 2450 153 
Q 2172 0 1784 0 
Q 1141 0 747 490 
Q 353 981 353 1791 
Q 353 2603 747 3093 
Q 1141 3584 1784 3584 
Q 2172 3584 2450 3431 
Q 2728 3278 2906 2969 
L 2906 3500 
L 3481 3500 
L 3481 434 
z
" transform="scale(0.015625)"/>
      <path id="DejaVuSans-65" d="M 3597 1894 
L 3597 1613 
L 953 1613 
Q 991 1019 1311 708 
Q 1631 397 2203 397 
Q 2534 397 2845 478 
Q 3156 559 3463 722 
L 3463 178 
Q 3153 47 2828 -22 
Q 2503 -91 2169 -91 
Q 1331 -91 842 396 
Q 353 884 353 1716 
Q 353 2575 817 3079 
Q 1281 3584 2069 3584 
Q 2775 3584 3186 3129 
Q 3597 2675 3597 1894 
z
M 3022 2063 
Q 3016 2534 2758 2815 
Q 2500 3097 2075 3097 
Q 1594 3097 1305 2825 
Q 1016 2553 972 2059 
L 3022 2063 
z
" transform="scale(0.015625)"/>
      <path id="DejaVuSans-74" d="M 1172 4494 
L 1172 3500 
L 2356 3500 
L 2356 3053 
L 1172 3053 
L 1172 1153 
Q 1172 725 1289 603 
Q 1406 481 1766 481 
L 2356 481 
L 2356 0 
L 1766 0 
Q 1100 0 847 248 
Q 594 497 594 1153 
L 594 3053 
L 172 3053 
L 172 3500 
L 594 3500 
L 594 4494 
L 1172 4494 
z
" transform="scale(0.015625)"/>
      <path id="DejaVuSans-5f" d="M 3263 -1063 
L 3263 -1509 
L -63 -1509 
L -63 -1063 
L 3263 -1063 
z
" transform="scale(0.015625)"/>
      <path id="DejaVuSans-73" d="M 2834 3397 
L 2834 2853 
Q 2591 2978 2328 3040 
Q 2066 3103 1784 3103 
Q 1356 3103 1142 2972 
Q 928 2841 928 2578 
Q 928 2378 1081 2264 
Q 1234 2150 1697 2047 
L 1894 2003 
Q 2506 1872 2764 1633 
Q 3022 1394 3022 966 
Q 3022 478 2636 193 
Q 2250 -91 1575 -91 
Q 1294 -91 989 -36 
Q 684 19 347 128 
L 347 722 
Q 666 556 975 473 
Q 1284 391 1588 391 
Q 1994 391 2212 530 
Q 2431 669 2431 922 
Q 2431 1156 2273 1281 
Q 2116 1406 1581 1522 
L 1381 1569 
Q 847 1681 609 1914 
Q 372 2147 372 2553 
Q 372 3047 722 3315 
Q 1072 3584 1716 3584 
Q 2034 3584 2315 3537 
Q 2597 3491 2834 3397 
z
" transform="scale(0.015625)"/>
      <path id="DejaVuSans-75" d="M 544 1381 
L 544 3500 
L 1119 3500 
L 1119 1403 
Q 1119 906 1312 657 
Q 1506 409 1894 409 
Q 2359 409 2629 706 
Q 2900 1003 2900 1516 
L 2900 3500 
L 3475 3500 
L 3475 0 
L 2900 0 
L 2900 538 
Q 2691 219 2414 64 
Q 2138 -91 1772 -91 
Q 1169 -91 856 284 
Q 544 659 544 1381 
z
M 1991 3584 
L 1991 3584 
z
" transform="scale(0.015625)"/>
      <path id="DejaVuSans-62" d="M 3116 1747 
Q 3116 2381 2855 2742 
Q 2594 3103 2138 3103 
Q 1681 3103 1420 2742 
Q 1159 2381 1159 1747 
Q 1159 1113 1420 752 
Q 1681 391 2138 391 
Q 2594 391 2855 752 
Q 3116 1113 3116 1747 
z
M 1159 2969 
Q 1341 3281 1617 3432 
Q 1894 3584 2278 3584 
Q 2916 3584 3314 3078 
Q 3713 2572 3713 1747 
Q 3713 922 3314 415 
Q 2916 -91 2278 -91 
Q 1894 -91 1617 61 
Q 1341 213 1159 525 
L 1159 0 
L 581 0 
L 581 4863 
L 1159 4863 
L 1159 2969 
z
" transform="scale(0.015625)"/>
      <path id="DejaVuSans-63" d="M 3122 3366 
L 3122 2828 
Q 2878 2963 2633 3030 
Q 2388 3097 2138 3097 
Q 1578 3097 1268 2742 
Q 959 2388 959 1747 
Q 959 1106 1268 751 
Q 1578 397 2138 397 
Q 2388 397 2633 464 
Q 2878 531 3122 666 
L 3122 134 
Q 2881 22 2623 -34 
Q 2366 -91 2075 -91 
Q 1284 -91 818 406 
Q 353 903 353 1747 
Q 353 2603 823 3093 
Q 1294 3584 2113 3584 
Q 2378 3584 2631 3529 
Q 2884 3475 3122 3366 
z
" transform="scale(0.015625)"/>
      <path id="DejaVuSans-72" d="M 2631 2963 
Q 2534 3019 2420 3045 
Q 2306 3072 2169 3072 
Q 1681 3072 1420 2755 
Q 1159 2438 1159 1844 
L 1159 0 
L 581 0 
L 581 3500 
L 1159 3500 
L 1159 2956 
Q 1341 3275 1631 3429 
Q 1922 3584 2338 3584 
Q 2397 3584 2469 3576 
Q 2541 3569 2628 3553 
L 2631 2963 
z
" transform="scale(0.015625)"/>
      <path id="DejaVuSans-69" d="M 603 3500 
L 1178 3500 
L 1178 0 
L 603 0 
L 603 3500 
z
M 603 4863 
L 1178 4863 
L 1178 4134 
L 603 4134 
L 603 4863 
z
" transform="scale(0.015625)"/>
      <path id="DejaVuSans-20" transform="scale(0.015625)"/>
      <path id="DejaVuSans-68" d="M 3513 2113 
L 3513 0 
L 2938 0 
L 2938 2094 
Q 2938 2591 2744 2837 
Q 2550 3084 2163 3084 
Q 1697 3084 1428 2787 
Q 1159 2491 1159 1978 
L 1159 0 
L 581 0 
L 581 4863 
L 1159 4863 
L 1159 2956 
Q 1366 3272 1645 3428 
Q 1925 3584 2291 3584 
Q 2894 3584 3203 3211 
Q 3513 2838 3513 2113 
z
" transform="scale(0.015625)"/>
      <path id="DejaVuSans-6f" d="M 1959 3097 
Q 1497 3097 1228 2736 
Q 959 2375 959 1747 
Q 959 1119 1226 758 
Q 1494 397 1959 397 
Q 2419 397 2687 759 
Q 2956 1122 2956 1747 
Q 2956 2369 2687 2733 
Q 2419 3097 1959 3097 
z
M 1959 3584 
Q 2709 3584 3137 3096 
Q 3566 2609 3566 1747 
Q 3566 888 3137 398 
Q 2709 -91 1959 -91 
Q 1206 -91 779 398 
Q 353 888 353 1747 
Q 353 2609 779 3096 
Q 1206 3584 1959 3584 
z
" transform="scale(0.015625)"/>
      <path id="DejaVuSans-79" d="M 2059 -325 
Q 1816 -950 1584 -1140 
Q 1353 -1331 966 -1331 
L 506 -1331 
L 506 -850 
L 844 -850 
Q 1081 -850 1212 -737 
Q 1344 -625 1503 -206 
L 1606 56 
L 191 3500 
L 800 3500 
L 1894 763 
L 2988 3500 
L 3597 3500 
L 2059 -325 
z
" transform="scale(0.015625)"/>
     </defs>
     <use xlink:href="#DejaVuSans-67"/>
     <use xlink:href="#DejaVuSans-65" transform="translate(63.476562 0)"/>
     <use xlink:href="#DejaVuSans-74" transform="translate(125 0)"/>
     <use xlink:href="#DejaVuSans-5f" transform="translate(164.208984 0)"/>
     <use xlink:href="#DejaVuSans-73" transform="translate(214.208984 0)"/>
     <use xlink:href="#DejaVuSans-75" transform="translate(266.308594 0)"/>
     <use xlink:href="#DejaVuSans-62" transform="translate(329.6875 0)"/>
     <use xlink:href="#DejaVuSans-73" transform="translate(393.164062 0)"/>
     <use xlink:href="#DejaVuSans-63" transform="translate(445.263672 0)"/>
     <use xlink:href="#DejaVuSans-72" transform="translate(500.244141 0)"/>
     <use xlink:href="#DejaVuSans-69" transform="translate(541.357422 0)"/>
     <use xlink:href="#DejaVuSans-62" transform="translate(569.140625 0)"/>
     <use xlink:href="#DejaVuSans-65" transform="translate(632.617188 0)"/>
     <use xlink:href="#DejaVuSans-20" transform="translate(694.140625 0)"/>
     <use xlink:href="#DejaVuSans-68" transform="translate(725.927734 0)"/>
     <use xlink:href="#DejaVuSans-69" transform="translate(789.306641 0)"/>
     <use xlink:href="#DejaVuSans-73" transform="translate(817.089844 0)"/>
     <use xlink:href="#DejaVuSans-74" transform="translate(869.189453 0)"/>
     <use xlink:href="#DejaVuSans-6f" transform="translate(908.398438 0)"/>
     <use xlink:href="#DejaVuSans-72" transform="translate(969.580078 0)"/>
     <use xlink:href="#DejaVuSans-79" transform="translate(1010.693359 0)"/>
    </g>
   </g>
   <g id="legend_1">
    <g id="line2d_39">
     <path d="M 815.08 328.498438 
L 825.08 328.498438 
L 835.08 328.498438 
" style="fill: none; stroke: #1f77b4; stroke-width: 1.5; stroke-linecap: square"/>
    </g>
    <g id="text_20">
     <!-- star -->
     <g style="fill: #a9a9a9" transform="translate(843.08 331.998438) scale(0.1 -0.1)">
      <defs>
       <path id="DejaVuSans-61" d="M 2194 1759 
Q 1497 1759 1228 1600 
Q 959 1441 959 1056 
Q 959 750 1161 570 
Q 1363 391 1709 391 
Q 2188 391 2477 730 
Q 2766 1069 2766 1631 
L 2766 1759 
L 2194 1759 
z
M 3341 1997 
L 3341 0 
L 2766 0 
L 2766 531 
Q 2569 213 2275 61 
Q 1981 -91 1556 -91 
Q 1019 -91 701 211 
Q 384 513 384 1019 
Q 384 1609 779 1909 
Q 1175 2209 1959 2209 
L 2766 2209 
L 2766 2266 
Q 2766 2663 2505 2880 
Q 2244 3097 1772 3097 
Q 1472 3097 1187 3025 
Q 903 2953 641 2809 
L 641 3341 
Q 956 3463 1253 3523 
Q 1550 3584 1831 3584 
Q 2591 3584 2966 3190 
Q 3341 2797 3341 1997 
z
" transform="scale(0.015625)"/>
      </defs>
      <use xlink:href="#DejaVuSans-73"/>
      <use xlink:href="#DejaVuSans-74" transform="translate(52.099609 0)"/>
      <use xlink:href="#DejaVuSans-61" transform="translate(91.308594 0)"/>
      <use xlink:href="#DejaVuSans-72" transform="translate(152.587891 0)"/>
     </g>
    </g>
    <g id="line2d_40">
     <path d="M 815.08 343.176562 
L 825.08 343.176562 
L 835.08 343.176562 
" style="fill: none; stroke: #ff7f0e; stroke-width: 1.5; stroke-linecap: square"/>
    </g>
    <g id="text_21">
     <!-- fork -->
     <g style="fill: #a9a9a9" transform="translate(843.08 346.676562) scale(0.1 -0.1)">
      <defs>
       <path id="DejaVuSans-66" d="M 2375 4863 
L 2375 4384 
L 1825 4384 
Q 1516 4384 1395 4259 
Q 1275 4134 1275 3809 
L 1275 3500 
L 2222 3500 
L 2222 3053 
L 1275 3053 
L 1275 0 
L 697 0 
L 697 3053 
L 147 3053 
L 147 3500 
L 697 3500 
L 697 3744 
Q 697 4328 969 4595 
Q 1241 4863 1831 4863 
L 2375 4863 
z
" transform="scale(0.015625)"/>
       <path id="DejaVuSans-6b" d="M 581 4863 
L 1159 4863 
L 1159 1991 
L 2875 3500 
L 3609 3500 
L 1753 1863 
L 3688 0 
L 2938 0 
L 1159 1709 
L 1159 0 
L 581 0 
L 581 4863 
z
" transform="scale(0.015625)"/>
      </defs>
      <use xlink:href="#DejaVuSans-66"/>
      <use xlink:href="#DejaVuSans-6f" transform="translate(35.205078 0)"/>
      <use xlink:href="#DejaVuSans-72" transform="translate(96.386719 0)"/>
      <use xlink:href="#DejaVuSans-6b" transform="translate(137.5 0)"/>
     </g>
    </g>
   </g>
  </g>
 </g>
 <defs>
  <clipPath id="pb55b8058f3">
   <rect x="108" y="43.2" width="669.6" height="277.2"/>
  </clipPath>
 </defs>
</svg>
